<svg width="655" height="541" viewBox="0 0 655 541" fill="none" xmlns="http://www.w3.org/2000/svg">
<path d="M363.14 503.147C387.405 526.792 420.026 540.035 454.001 540.035C564.528 540.035 654.128 442.556 654.128 322.37C654.128 202.184 564.528 104.753 454.001 104.753L203.321 104.635C225.929 167.198 285.719 208.817 352.578 208.532L454.001 208.099C512.039 208.099 559.088 259.26 559.088 322.37C559.088 385.48 512.039 436.641 454.001 436.641L294.94 436.69L363.14 503.147Z" fill="#E8F9FF"></path>
<path d="M453.998 540.035C420.023 540.035 387.402 526.791 363.137 503.146L294.937 436.689L453.998 436.64V540.035Z" fill="url(#paint0_linear_627_224)"></path>
<path opacity="0.5" d="M454.001 156.525C454.001 185.044 430.814 208.198 402.131 208.32L352.578 208.532C285.719 208.817 225.929 167.198 203.321 104.635L401.932 104.729C430.693 104.742 454.001 127.928 454.001 156.525Z" fill="url(#paint1_linear_627_224)"></path>
<path d="M286.323 105.383H95.0402V338.121H200.906C266.281 338.121 327.761 369.027 366.519 421.375L378.239 437.204H0V0L138.914 1.75504C204.9 2.5887 263.531 43.8062 286.323 105.383Z" fill="white"></path>
<defs>
<linearGradient id="paint0_linear_627_224" x1="448.572" y1="420.106" x2="317.691" y2="431.335" gradientUnits="userSpaceOnUse">
<stop stop-color="#29BDF2" stop-opacity="0"></stop>
<stop offset="1" stop-color="#29BDF2"></stop>
</linearGradient>
<linearGradient id="paint1_linear_627_224" x1="435.154" y1="99.8257" x2="241.961" y2="120.077" gradientUnits="userSpaceOnUse">
<stop stop-color="#29BDF2" stop-opacity="0"></stop>
<stop offset="1" stop-color="#29BDF2"></stop>
</linearGradient>
</defs>
</svg>