<svg width="343" height="72" viewBox="0 0 343 72" fill="none" xmlns="http://www.w3.org/2000/svg">
<path d="M47.7433 66.1502C50.9335 69.2588 55.2223 71 59.689 71C74.2204 71 86.0004 58.1841 86.0004 42.3828C86.0004 26.5816 74.2204 13.7722 59.689 13.7722L26.7314 13.7566C29.7037 21.9819 37.5645 27.4538 46.3547 27.4163L59.689 27.3593C67.3195 27.3593 73.5051 34.0856 73.5051 42.3828C73.5051 50.6801 67.3195 57.4064 59.689 57.4064L38.7768 57.4128L47.7433 66.1502Z" fill="#002836"></path>
<path d="M59.6886 70.9999C55.2218 70.9999 50.9331 69.2587 47.7429 66.15L38.7764 57.4127L59.6886 57.4062V70.9999Z" fill="url(#paint0_linear_308_764)"></path>
<path opacity="0.5" d="M59.689 20.5787C59.689 24.3283 56.6406 27.3724 52.8696 27.3885L46.3547 27.4163C37.5645 27.4538 29.7037 21.9819 26.7314 13.7566L52.8434 13.7689C56.6247 13.7707 59.689 16.8191 59.689 20.5787Z" fill="url(#paint1_linear_308_764)"></path>
<path d="M37.6437 13.8551H12.4952V44.4538H26.4137C35.0087 44.4538 43.0917 48.5171 48.1873 55.3993L49.7281 57.4805H0V0L18.2634 0.23074C26.9388 0.340344 34.6472 5.75933 37.6437 13.8551Z" fill="black"></path>
<path d="M313.396 43.259C313.396 39.7364 314.661 36.9363 317.19 34.8589C319.719 32.7363 323.219 31.675 327.69 31.675H337.784V23.9523H317.935V18.8716H337.039C339.206 18.8716 340.742 19.3232 341.645 20.2264C342.548 21.0845 343 22.6426 343 24.9007V54.0978H338.461L337.784 50.3042C336.519 51.7494 334.916 52.8559 332.974 53.6236C331.077 54.3914 328.955 54.7752 326.606 54.7752C322.587 54.7752 319.38 53.7817 316.987 51.7946C314.593 49.8074 313.396 46.9622 313.396 43.259ZM319.019 43.0557C319.019 45.088 319.787 46.6687 321.322 47.7977C322.903 48.9268 324.913 49.4913 327.351 49.4913C330.377 49.4913 332.861 48.7687 334.803 47.3235C336.79 45.8784 337.784 43.959 337.784 41.5654V35.7395H328.503C325.342 35.7395 322.971 36.3718 321.39 37.6363C319.809 38.8557 319.019 40.6622 319.019 43.0557Z" fill="black"></path>
<path d="M291.12 18.8714L291.797 9.38745H296.404V18.8714H306.972V23.9521H296.404V49.017H309.478V54.0977H297.081C294.959 54.0977 293.423 53.6686 292.475 52.8106C291.572 51.9073 291.12 50.3267 291.12 48.0686V23.9521H287.462V18.8714H291.12Z" fill="black"></path>
<path d="M257.437 23.3418C258.657 21.4902 260.215 20.1805 262.112 19.4127C264.008 18.5998 266.108 18.1934 268.412 18.1934C270.579 18.1934 272.566 18.5321 274.373 19.2095C276.225 19.8418 277.805 20.8805 279.115 22.3257C280.425 23.7708 281.441 25.6451 282.163 27.9483C282.886 30.2064 283.247 32.9613 283.247 36.2129C283.247 39.4646 282.886 42.2646 282.163 44.613C281.441 46.9614 280.425 48.8808 279.115 50.3712C277.805 51.8615 276.225 52.968 274.373 53.6906C272.566 54.4132 270.579 54.7744 268.412 54.7744C266.108 54.7744 264.008 54.3454 262.112 53.4873C260.215 52.6293 258.657 51.2518 257.437 49.355V71.0327H252.153V18.8708H257.437V23.3418ZM257.437 36.2129C257.437 38.6968 257.686 40.7969 258.182 42.513C258.679 44.2292 259.379 45.6066 260.282 46.6453C261.186 47.6389 262.247 48.3615 263.466 48.8131C264.731 49.2647 266.108 49.4905 267.599 49.4905C269.089 49.4905 270.444 49.2647 271.663 48.8131C272.883 48.3615 273.921 47.6163 274.779 46.5776C275.683 45.5388 276.383 44.184 276.879 42.513C277.376 40.7969 277.625 38.6968 277.625 36.2129C277.625 33.7742 277.376 31.7419 276.879 30.1161C276.383 28.4903 275.683 27.1806 274.779 26.187C273.921 25.1934 272.883 24.4934 271.663 24.087C270.444 23.6805 269.089 23.4773 267.599 23.4773C266.108 23.4773 264.731 23.6805 263.466 24.087C262.247 24.4934 261.186 25.1934 260.282 26.187C259.379 27.1354 258.679 28.4451 258.182 30.1161C257.686 31.7419 257.437 33.7742 257.437 36.2129Z" fill="black"></path>
<path d="M246.526 18.9395V54.1657H241.242V48.814C239.752 50.8915 237.878 52.427 235.62 53.4205C233.407 54.3689 231.013 54.8431 228.439 54.8431C219.904 54.8431 215.636 50.3269 215.636 41.2946V18.9395H220.92V38.1784C220.92 42.3333 221.529 45.2688 222.749 46.985C223.968 48.7011 226.068 49.5592 229.049 49.5592C230.539 49.5592 232.007 49.3334 233.452 48.8817C234.942 48.4301 236.252 47.685 237.381 46.6462C238.555 45.6075 239.481 44.2527 240.159 42.5817C240.881 40.8655 241.242 38.7655 241.242 36.2816V18.9395H246.526Z" fill="black"></path>
<path d="M188.05 24.9007C188.05 22.6426 188.501 21.0845 189.405 20.2264C190.353 19.3232 191.911 18.8716 194.079 18.8716H211.353V24.02H193.334V54.0978H188.05V24.9007Z" fill="black"></path>
<path d="M167.528 18.1934C171.457 18.1934 174.686 19.1643 177.215 21.1063C179.79 23.0483 181.596 25.916 182.635 29.7096H177.012C175.522 25.4644 172.27 23.3418 167.257 23.3418C164.954 23.3418 163.102 23.8612 161.702 24.8999C160.302 25.8935 159.602 27.2483 159.602 28.9645C159.602 30.2742 160.167 31.2451 161.296 31.8774C162.47 32.4645 163.938 32.9161 165.699 33.2323C167.46 33.5484 169.335 33.8645 171.322 34.1807C173.354 34.4516 175.251 34.9258 177.012 35.6032C178.773 36.2807 180.219 37.2742 181.348 38.5839C182.522 39.8936 183.109 41.7678 183.109 44.2066C183.109 47.4582 181.867 50.0325 179.383 51.9293C176.944 53.826 173.602 54.7744 169.357 54.7744C164.886 54.7744 161.228 53.7357 158.383 51.6583C155.583 49.5808 153.867 46.6905 153.234 42.9872H158.857C159.625 45.2905 160.844 46.984 162.515 48.0679C164.231 49.1518 166.535 49.6937 169.425 49.6937C171.818 49.6937 173.76 49.197 175.251 48.2034C176.786 47.2098 177.554 45.7647 177.554 43.8679C177.554 42.513 176.967 41.5194 175.793 40.8872C174.664 40.2549 173.218 39.7581 171.457 39.3968C169.696 39.0355 167.799 38.6968 165.767 38.3807C163.78 38.0646 161.905 37.5678 160.144 36.8904C158.383 36.2129 156.915 35.242 155.741 33.9774C154.612 32.7129 154.047 30.929 154.047 28.6257C154.047 27.1354 154.386 25.758 155.063 24.4934C155.741 23.1837 156.667 22.0773 157.841 21.174C159.06 20.2256 160.483 19.5031 162.109 19.0063C163.78 18.4643 165.586 18.1934 167.528 18.1934Z" fill="black"></path>
<path d="M142.869 54.0974V18.8711H148.153V54.0974H142.869ZM142.666 11.6904V6H148.356V11.6904H142.666Z" fill="black"></path>
<path d="M131.81 49.6263C130.591 51.478 129.033 52.8102 127.136 53.6232C125.239 54.3909 123.139 54.7748 120.836 54.7748C118.668 54.7748 116.658 54.4586 114.807 53.8264C113 53.1489 111.442 52.0876 110.132 50.6425C108.823 49.1973 107.806 47.3457 107.084 45.0876C106.361 42.7843 106 40.0069 106 36.7552C106 33.5036 106.361 30.7261 107.084 28.4228C107.806 26.0744 108.823 24.1551 110.132 22.6647C111.442 21.1292 113 20.0002 114.807 19.2776C116.658 18.555 118.668 18.1937 120.836 18.1937C123.139 18.1937 125.239 18.6227 127.136 19.4808C129.033 20.3389 130.591 21.7163 131.81 23.6131V6H137.094V54.0973H131.81V49.6263ZM111.623 36.7552C111.623 39.1939 111.871 41.2262 112.368 42.8521C112.865 44.4779 113.542 45.7876 114.4 46.7811C115.303 47.7747 116.365 48.4747 117.584 48.8812C118.803 49.2876 120.158 49.4908 121.649 49.4908C123.139 49.4908 124.494 49.2876 125.713 48.8812C126.978 48.4747 128.062 47.7973 128.965 46.8489C129.868 45.8553 130.568 44.5456 131.065 42.9198C131.562 41.294 131.81 39.2391 131.81 36.7552C131.81 34.2713 131.562 32.1939 131.065 30.5229C130.568 28.8067 129.868 27.4293 128.965 26.3906C128.062 25.3518 126.978 24.6067 125.713 24.1551C124.494 23.7034 123.139 23.4776 121.649 23.4776C120.158 23.4776 118.803 23.7034 117.584 24.1551C116.365 24.6067 115.303 25.3518 114.4 26.3906C113.542 27.4293 112.865 28.8067 112.368 30.5229C111.871 32.1939 111.623 34.2713 111.623 36.7552Z" fill="black"></path>
<defs>
<linearGradient id="paint0_linear_308_764" x1="58.9753" y1="55.2325" x2="41.768" y2="56.7088" gradientUnits="userSpaceOnUse">
<stop stop-color="#29BDF2" stop-opacity="0"></stop>
<stop offset="1" stop-color="#29BDF2"></stop>
</linearGradient>
<linearGradient id="paint1_linear_308_764" x1="57.2112" y1="13.1243" x2="31.8116" y2="15.7869" gradientUnits="userSpaceOnUse">
<stop stop-color="#29BDF2" stop-opacity="0"></stop>
<stop offset="1" stop-color="#29BDF2"></stop>
</linearGradient>
</defs>
</svg>