<svg width="586" height="122" viewBox="0 0 586 122" fill="none" xmlns="http://www.w3.org/2000/svg">
<path d="M81.4358 112.833C86.8773 118.135 94.1926 121.105 101.812 121.105C126.598 121.105 146.691 99.245 146.691 72.2928C146.691 45.3405 126.598 23.4914 101.812 23.4914L45.5957 23.4648C50.6655 37.4948 64.0738 46.8282 79.0672 46.7642L101.812 46.6671C114.827 46.6671 125.378 58.1401 125.378 72.2928C125.378 86.4454 114.827 97.9184 101.812 97.9184L66.1415 97.9295L81.4358 112.833Z" fill="#E8F9FF"></path>
<path d="M101.811 121.105C94.1917 121.105 86.8763 118.135 81.4348 112.832L66.1406 97.929L101.811 97.918V121.105Z" fill="url(#paint0_linear_443_119)"></path>
<path opacity="0.5" d="M101.812 35.1014C101.812 41.497 96.6118 46.6893 90.1796 46.7168L79.0672 46.7642C64.0738 46.8282 50.6655 37.4948 45.5957 23.4648L90.135 23.4859C96.5847 23.489 101.812 28.6885 101.812 35.1014Z" fill="url(#paint1_linear_443_119)"></path>
<path d="M64.2091 23.6326H21.3131V75.825H45.0539C59.7145 75.825 73.5017 82.7558 82.1932 94.4949L84.8215 98.0447H0V0L31.152 0.393574C45.9496 0.580527 59.0979 9.82371 64.2091 23.6326Z" fill="white"></path>
<path d="M534.562 73.7832C534.562 67.7747 536.719 62.9986 541.033 59.4551C545.347 55.8346 551.317 54.0243 558.943 54.0243H576.16V40.8517H542.304V32.1855H574.889C578.587 32.1855 581.206 32.9559 582.746 34.4965C584.287 35.9602 585.057 38.6178 585.057 42.4694V92.2711H577.316L576.16 85.8003C574.003 88.2654 571.269 90.1527 567.956 91.4622C564.721 92.7718 561.1 93.4266 557.095 93.4266C550.239 93.4266 544.769 91.7318 540.687 88.3424C536.604 84.953 534.562 80.0999 534.562 73.7832ZM544.153 73.4366C544.153 76.903 545.463 79.5992 548.082 81.525C550.778 83.4508 554.206 84.4137 558.366 84.4137C563.527 84.4137 567.764 83.1812 571.076 80.7162C574.465 78.2511 576.16 74.9772 576.16 70.8945V60.9573H560.33C554.938 60.9573 550.893 62.0357 548.197 64.1926C545.501 66.2725 544.153 69.3538 544.153 73.4366Z" fill="white"></path>
<path d="M496.564 32.1847L497.719 16.0078H505.577V32.1847H523.602V40.8509H505.577V83.604H527.878V92.2702H506.732C503.112 92.2702 500.493 91.5384 498.875 90.0748C497.334 88.5341 496.564 85.838 496.564 81.9864V40.8509H490.324V32.1847H496.564Z" fill="white"></path>
<path d="M439.11 39.8081C441.19 36.6498 443.848 34.4158 447.083 33.1063C450.319 31.7197 453.901 31.0264 457.829 31.0264C461.527 31.0264 464.916 31.6041 467.998 32.7596C471.156 33.8381 473.852 35.6098 476.086 38.0749C478.32 40.5399 480.053 43.7368 481.286 47.6654C482.518 51.5171 483.135 56.2161 483.135 61.7624C483.135 67.3088 482.518 72.0848 481.286 76.0905C480.053 80.0962 478.32 83.3701 476.086 85.9122C473.852 88.4543 471.156 90.3416 467.998 91.5741C464.916 92.8066 461.527 93.4229 457.829 93.4229C453.901 93.4229 450.319 92.6911 447.083 91.2274C443.848 89.7638 441.19 87.4143 439.11 84.179V121.155H430.098V32.1819H439.11V39.8081ZM439.11 61.7624C439.11 65.9992 439.534 69.5812 440.382 72.5085C441.229 75.4357 442.423 77.7852 443.964 79.557C445.504 81.2517 447.314 82.4842 449.394 83.2546C451.551 84.0249 453.901 84.41 456.443 84.41C458.985 84.41 461.296 84.0249 463.376 83.2546C465.456 82.4842 467.227 81.2132 468.691 79.4414C470.232 77.6697 471.426 75.3587 472.273 72.5085C473.12 69.5812 473.544 65.9992 473.544 61.7624C473.544 57.6027 473.12 54.1362 472.273 51.363C471.426 48.5898 470.232 46.3559 468.691 44.6612C467.227 42.9664 465.456 41.7724 463.376 41.0791C461.296 40.3858 458.985 40.0392 456.443 40.0392C453.901 40.0392 451.551 40.3858 449.394 41.0791C447.314 41.7724 445.504 42.9664 443.964 44.6612C442.423 46.2788 441.229 48.5128 440.382 51.363C439.534 54.1362 439.11 57.6027 439.11 61.7624Z" fill="white"></path>
<path d="M420.501 32.3018V92.3873H411.488V83.2589C408.946 86.8024 405.749 89.4215 401.898 91.1162C398.123 92.7339 394.04 93.5428 389.649 93.5428C375.09 93.5428 367.811 85.8395 367.811 70.433V32.3018H376.823V65.1177C376.823 72.2047 377.863 77.2118 379.943 80.1391C382.023 83.0663 385.605 84.5299 390.689 84.5299C393.231 84.5299 395.735 84.1448 398.2 83.3745C400.742 82.6041 402.976 81.3331 404.902 79.5613C406.905 77.7896 408.484 75.4786 409.639 72.6284C410.872 69.7012 411.488 66.1191 411.488 61.8823V32.3018H420.501Z" fill="white"></path>
<path d="M320.754 42.4694C320.754 38.6178 321.524 35.9602 323.065 34.4965C324.683 32.9559 327.34 32.1855 331.038 32.1855H360.503V40.9673H329.767V92.2711H320.754V42.4694Z" fill="white"></path>
<path d="M285.756 31.0264C292.458 31.0264 297.966 32.6826 302.279 35.995C306.67 39.3074 309.752 44.199 311.523 50.6697H301.933C299.391 43.4286 293.844 39.8081 285.294 39.8081C281.365 39.8081 278.207 40.694 275.819 42.4657C273.431 44.1604 272.237 46.4714 272.237 49.3987C272.237 51.6326 273.2 53.2888 275.125 54.3673C277.128 55.3687 279.632 56.139 282.636 56.6783C285.64 57.2175 288.837 57.7567 292.227 58.296C295.693 58.7582 298.928 59.567 301.933 60.7225C304.937 61.878 307.402 63.5727 309.328 65.8066C311.331 68.0406 312.332 71.2374 312.332 75.3972C312.332 80.9436 310.214 85.3344 305.977 88.5698C301.817 91.8052 296.117 93.4229 288.876 93.4229C281.249 93.4229 275.01 91.6511 270.157 88.1076C265.381 84.5641 262.453 79.634 261.375 73.3173H270.966C272.275 77.246 274.355 80.1347 277.205 81.9835C280.132 83.8323 284.061 84.7567 288.991 84.7567C293.074 84.7567 296.386 83.9093 298.928 82.2146C301.548 80.5199 302.857 78.0548 302.857 74.8195C302.857 72.5085 301.856 70.8138 299.853 69.7353C297.927 68.6569 295.462 67.8095 292.458 67.1932C289.453 66.577 286.218 65.9992 282.752 65.46C279.362 64.9208 276.165 64.0734 273.161 62.9179C270.157 61.7624 267.653 60.1062 265.65 57.9493C263.724 55.7924 262.762 52.7496 262.762 48.8209C262.762 46.2788 263.339 43.9294 264.495 41.7724C265.65 39.5385 267.229 37.6512 269.232 36.1105C271.312 34.4928 273.739 33.2603 276.512 32.413C279.362 31.4886 282.443 31.0264 285.756 31.0264Z" fill="white"></path>
<path d="M243.691 92.2703V32.1848H252.704V92.2703H243.691ZM243.345 19.9366V10.2305H253.051V19.9366H243.345Z" fill="white"></path>
<path d="M224.828 84.6441C222.748 87.8024 220.09 90.0749 216.855 91.4615C213.62 92.771 210.038 93.4258 206.109 93.4258C202.411 93.4258 198.983 92.8866 195.825 91.8081C192.744 90.6526 190.086 88.8424 187.852 86.3773C185.618 83.9123 183.885 80.7539 182.652 76.9023C181.42 72.9736 180.804 68.2361 180.804 62.6898C180.804 57.1434 181.42 52.4059 182.652 48.4772C183.885 44.4715 185.618 41.1976 187.852 38.6555C190.086 36.0364 192.744 34.1106 195.825 32.8781C198.983 31.6456 202.411 31.0293 206.109 31.0293C210.038 31.0293 213.62 31.7611 216.855 33.2247C220.09 34.6884 222.748 37.0379 224.828 40.2732V10.2305H233.841V92.2703H224.828V84.6441ZM190.394 62.6898C190.394 66.8495 190.818 70.316 191.665 73.0892C192.513 75.8624 193.668 78.0963 195.132 79.791C196.672 81.4857 198.483 82.6797 200.563 83.373C202.642 84.0663 204.953 84.413 207.496 84.413C210.038 84.413 212.349 84.0663 214.428 83.373C216.585 82.6797 218.434 81.5243 219.975 79.9066C221.516 78.2119 222.71 75.9779 223.557 73.2047C224.404 70.4315 224.828 66.9266 224.828 62.6898C224.828 58.453 224.404 54.9095 223.557 52.0592C222.71 49.132 221.516 46.7825 219.975 45.0107C218.434 43.239 216.585 41.968 214.428 41.1976C212.349 40.4273 210.038 40.0421 207.496 40.0421C204.953 40.0421 202.642 40.4273 200.563 41.1976C198.483 41.968 196.672 43.239 195.132 45.0107C193.668 46.7825 192.513 49.132 191.665 52.0592C190.818 54.9095 190.394 58.453 190.394 62.6898Z" fill="white"></path>
<defs>
<linearGradient id="paint0_linear_443_119" x1="100.594" y1="94.2103" x2="71.2434" y2="96.7283" gradientUnits="userSpaceOnUse">
<stop stop-color="#29BDF2" stop-opacity="0"></stop>
<stop offset="1" stop-color="#29BDF2"></stop>
</linearGradient>
<linearGradient id="paint1_linear_443_119" x1="97.5851" y1="22.3864" x2="54.2609" y2="26.9279" gradientUnits="userSpaceOnUse">
<stop stop-color="#29BDF2" stop-opacity="0"></stop>
<stop offset="1" stop-color="#29BDF2"></stop>
</linearGradient>
</defs>
</svg>