<svg width="405" height="111" viewBox="0 0 405 111" fill="none" xmlns="http://www.w3.org/2000/svg">
<path d="M353.759 63.5528C353.759 57.5442 355.916 52.7682 360.23 49.2247C364.543 45.6041 370.513 43.7939 378.14 43.7939H395.356V30.6213H361.501V21.9551H394.085C397.783 21.9551 400.402 22.7254 401.943 24.2661C403.483 25.7297 404.254 28.3873 404.254 32.2389V82.0406H396.512L395.356 75.5699C393.2 78.0349 390.465 79.9222 387.152 81.2318C383.917 82.5413 380.297 83.1961 376.291 83.1961C369.435 83.1961 363.966 81.5014 359.883 78.1119C355.8 74.7225 353.759 69.8694 353.759 63.5528ZM363.349 63.2061C363.349 66.6726 364.659 69.3687 367.278 71.2945C369.974 73.2204 373.402 74.1833 377.562 74.1833C382.723 74.1833 386.96 72.9507 390.272 70.4857C393.662 68.0207 395.356 64.7468 395.356 60.664V50.7268H379.526C374.134 50.7268 370.09 51.8053 367.394 53.9622C364.697 56.0421 363.349 59.1234 363.349 63.2061Z" fill="white"/>
<path d="M315.76 21.9542L316.916 5.77734H324.773V21.9542H342.799V30.6204H324.773V73.3736H347.074V82.0398H325.928C322.308 82.0398 319.689 81.3079 318.071 79.8443C316.53 78.3037 315.76 75.6075 315.76 71.7559V30.6204H309.521V21.9542H315.76Z" fill="white"/>
<path d="M258.307 29.5776C260.387 26.4193 263.044 24.1853 266.28 22.8758C269.515 21.4892 273.097 20.7959 277.026 20.7959C280.723 20.7959 284.113 21.3736 287.194 22.5291C290.352 23.6076 293.049 25.3793 295.282 27.8444C297.516 30.3094 299.25 33.5063 300.482 37.435C301.715 41.2866 302.331 45.9856 302.331 51.532C302.331 57.0783 301.715 61.8543 300.482 65.86C299.25 69.8657 297.516 73.1396 295.282 75.6817C293.049 78.2238 290.352 80.1111 287.194 81.3436C284.113 82.5762 280.723 83.1924 277.026 83.1924C273.097 83.1924 269.515 82.4606 266.28 80.997C263.044 79.5334 260.387 77.1839 258.307 73.9485V110.924H249.294V21.9514H258.307V29.5776ZM258.307 51.532C258.307 55.7688 258.73 59.3508 259.578 62.278C260.425 65.2053 261.619 67.5548 263.16 69.3265C264.7 71.0212 266.511 72.2538 268.591 73.0241C270.748 73.7944 273.097 74.1796 275.639 74.1796C278.181 74.1796 280.492 73.7944 282.572 73.0241C284.652 72.2538 286.424 70.9827 287.887 69.211C289.428 67.4392 290.622 65.1282 291.469 62.278C292.317 59.3508 292.74 55.7688 292.74 51.532C292.74 47.3722 292.317 43.9057 291.469 41.1325C290.622 38.3594 289.428 36.1254 287.887 34.4307C286.424 32.736 284.652 31.542 282.572 30.8487C280.492 30.1554 278.181 29.8087 275.639 29.8087C273.097 29.8087 270.748 30.1554 268.591 30.8487C266.511 31.542 264.7 32.736 263.16 34.4307C261.619 36.0484 260.425 38.2823 259.578 41.1325C258.73 43.9057 258.307 47.3722 258.307 51.532Z" fill="white"/>
<path d="M239.697 22.0713V82.1568H230.684V73.0284C228.142 76.5719 224.945 79.1911 221.094 80.8858C217.319 82.5035 213.236 83.3123 208.846 83.3123C194.286 83.3123 187.007 75.609 187.007 60.2025V22.0713H196.02V54.8872C196.02 61.9742 197.06 66.9814 199.139 69.9086C201.219 72.8359 204.801 74.2995 209.886 74.2995C212.428 74.2995 214.931 73.9143 217.396 73.144C219.938 72.3737 222.172 71.1026 224.098 69.3309C226.101 67.5591 227.68 65.2481 228.836 62.3979C230.068 59.4707 230.684 55.8887 230.684 51.6519V22.0713H239.697Z" fill="white"/>
<path d="M139.95 32.2389C139.95 28.3873 140.721 25.7297 142.261 24.2661C143.879 22.7254 146.536 21.9551 150.234 21.9551H179.699V30.7368H148.963V82.0406H139.95V32.2389Z" fill="white"/>
<path d="M104.952 20.7959C111.654 20.7959 117.162 22.4521 121.476 25.7645C125.867 29.0769 128.948 33.9685 130.72 40.4392H121.129C118.587 33.1982 113.041 29.5776 104.49 29.5776C100.561 29.5776 97.4029 30.4635 95.0149 32.2353C92.6269 33.93 91.4329 36.241 91.4329 39.1682C91.4329 41.4022 92.3958 43.0584 94.3216 44.1368C96.3245 45.1382 98.828 45.9086 101.832 46.4478C104.837 46.987 108.033 47.5263 111.423 48.0655C114.889 48.5277 118.125 49.3365 121.129 50.492C124.133 51.6475 126.598 53.3422 128.524 55.5762C130.527 57.8101 131.528 61.007 131.528 65.1667C131.528 70.7131 129.41 75.104 125.173 78.3393C121.013 81.5747 115.313 83.1924 108.072 83.1924C100.446 83.1924 94.2061 81.4207 89.353 77.8772C84.577 74.3336 81.6497 69.4035 80.5713 63.0869H90.1619C91.4714 67.0155 93.5513 69.9043 96.4015 71.7531C99.3288 73.6018 103.257 74.5262 108.188 74.5262C112.27 74.5262 115.583 73.6789 118.125 71.9841C120.744 70.2894 122.053 67.8244 122.053 64.589C122.053 62.278 121.052 60.5833 119.049 59.5048C117.123 58.4264 114.658 57.579 111.654 56.9628C108.65 56.3465 105.414 55.7688 101.948 55.2295C98.5584 54.6903 95.3616 53.8429 92.3573 52.6874C89.353 51.532 86.8495 49.8758 84.8466 47.7188C82.9208 45.5619 81.9579 42.5191 81.9579 38.5905C81.9579 36.0484 82.5356 33.6989 83.6911 31.542C84.8466 29.308 86.4258 27.4207 88.4286 25.8801C90.5085 24.2624 92.935 23.0298 95.7082 22.1825C98.5584 21.2581 101.64 20.7959 104.952 20.7959Z" fill="white"/>
<path d="M62.8877 82.0399V21.9543H71.9005V82.0399H62.8877ZM62.541 9.70612V0H72.2471V9.70612H62.541Z" fill="white"/>
<path d="M44.0242 74.4136C41.9443 77.572 39.2867 79.8444 36.0513 81.231C32.8159 82.5406 29.2339 83.1953 25.3053 83.1953C21.6077 83.1953 18.1797 82.6561 15.0214 81.5777C11.9401 80.4222 9.28244 78.6119 7.0485 76.1468C4.81455 73.6818 3.08131 70.5235 1.84879 66.6718C0.616262 62.7432 0 58.0056 0 52.4593C0 46.9129 0.616262 42.1754 1.84879 38.2467C3.08131 34.241 4.81455 30.9672 7.0485 28.4251C9.28244 25.806 11.9401 23.8801 15.0214 22.6476C18.1797 21.4151 21.6077 20.7988 25.3053 20.7988C29.2339 20.7988 32.8159 21.5306 36.0513 22.9943C39.2867 24.4579 41.9443 26.8074 44.0242 30.0428V0H53.037V82.0399H44.0242V74.4136ZM9.59057 52.4593C9.59057 56.6191 10.0143 60.0855 10.8616 62.8587C11.709 65.6319 12.8645 67.8658 14.3281 69.5606C15.8687 71.2553 17.679 72.4493 19.7589 73.1426C21.8388 73.8359 24.1498 74.1825 26.6918 74.1825C29.2339 74.1825 31.5449 73.8359 33.6248 73.1426C35.7817 72.4493 37.6305 71.2938 39.1711 69.6761C40.7118 67.9814 41.9058 65.7474 42.7532 62.9743C43.6005 60.2011 44.0242 56.6961 44.0242 52.4593C44.0242 48.2225 43.6005 44.679 42.7532 41.8288C41.9058 38.9015 40.7118 36.552 39.1711 34.7803C37.6305 33.0085 35.7817 31.7375 33.6248 30.9672C31.5449 30.1968 29.2339 29.8117 26.6918 29.8117C24.1498 29.8117 21.8388 30.1968 19.7589 30.9672C17.679 31.7375 15.8687 33.0085 14.3281 34.7803C12.8645 36.552 11.709 38.9015 10.8616 41.8288C10.0143 44.679 9.59057 48.2225 9.59057 52.4593Z" fill="white"/>
</svg>
